HIERARCHY
ROOT Hips
{
	OFFSET 0.000000 0.000000 0.000000
	CHANNELS 6 Xposition Yposition Zposition Zrotation Yrotation Xrotation 
	JOINT LHipJoint
	{
		OFFSET 0.000000 0.000000 0.000000
		CHANNELS 3 Zrotation Yrotation Xrotation
		JOINT LeftUpLeg
		{
			OFFSET 1.363060 -1.794630 0.839290
			CHANNELS 3 Zrotation Yrotation Xrotation
			JOINT LeftLeg
			{
				OFFSET 2.448110 -6.726130 0.000000
				CHANNELS 3 Zrotation Yrotation Xrotation
				JOINT LeftFoot
				{
					OFFSET 2.562200 -7.039590 0.000000
					CHANNELS 3 Zrotation Yrotation Xrotation
					JOINT LeftToeBase
					{
						OFFSET 0.157640 -0.433110 2.322550
						CHANNELS 3 Zrotation Yrotation Xrotation
						End Site
						{
							OFFSET 0.000000 0.000000 0.000000
						}
					}
				}
			}
		}
	}
	JOINT RHipJoint
	{
		OFFSET 0.000000 0.000000 0.000000
		CHANNELS 3 Zrotation Yrotation Xrotation
		JOINT RightUpLeg
		{
			OFFSET -1.305520 -1.794630 0.839290
			CHANNELS 3 Zrotation Yrotation Xrotation
			JOINT RightLeg
			{
				OFFSET -2.542530 -6.985550 0.000000
				CHANNELS 3 Zrotation Yrotation Xrotation
				JOINT RightFoot
				{
					OFFSET -2.568260 -7.056230 0.000000
					CHANNELS 3 Zrotation Yrotation Xrotation
					JOINT RightToeBase
					{
						OFFSET -0.164730 -0.452590 2.363150
						CHANNELS 3 Zrotation Yrotation Xrotation
						End Site
						{
							OFFSET 0.000000 0.000000 0.000000
						}
					}
				}
			}
		}
	}
	JOINT LowerBack
	{
		OFFSET 0.000000 0.000000 0.000000
		CHANNELS 3 Zrotation Yrotation Xrotation
		JOINT Spine
		{
			OFFSET 0.028270 2.035590 -0.193380
			CHANNELS 3 Zrotation Yrotation Xrotation
			JOINT Spine1
			{
				OFFSET 0.056720 2.048850 -0.042750
				CHANNELS 3 Zrotation Yrotation Xrotation
				JOINT Neck
				{
					OFFSET 0.000000 0.000000 0.000000
					CHANNELS 3 Zrotation Yrotation Xrotation
					JOINT Neck1
					{
						OFFSET -0.054170 1.746240 0.172020
						CHANNELS 3 Zrotation Yrotation Xrotation
						JOINT Head
						{
							OFFSET 0.104070 1.761360 -0.123970
							CHANNELS 3 Zrotation Yrotation Xrotation
							End Site
							{
								OFFSET 0.000000 0.000000 0.000000
							}
						}
					}
				}
				JOINT LeftShoulder
				{
					OFFSET 0.000000 0.000000 0.000000
					CHANNELS 3 Zrotation Yrotation Xrotation
					JOINT LeftArm
					{
						OFFSET 3.362410 1.200890 -0.311210
						CHANNELS 3 Zrotation Yrotation Xrotation
						JOINT LeftForeArm
						{
							OFFSET 4.983000 -0.000000 -0.000000
							CHANNELS 3 Zrotation Yrotation Xrotation
							JOINT LeftHand
							{
								OFFSET 3.483560 -0.000000 -0.000000
								CHANNELS 3 Zrotation Yrotation Xrotation
								JOINT LeftFingerBase
								{
									OFFSET 0.000000 0.000000 0.000000
									CHANNELS 3 Zrotation Yrotation Xrotation
									JOINT LeftHandIndex1
									{
										OFFSET 0.715260 -0.000000 -0.000000
										CHANNELS 3 Zrotation Yrotation Xrotation
										End Site
										{
											OFFSET 0.000000 0.000000 0.000000
										}
									}
								}
								JOINT LThumb
								{
									OFFSET 0.000000 0.000000 0.000000
									CHANNELS 3 Zrotation Yrotation Xrotation
									End Site
									{
										OFFSET 0.000000 0.000000 0.000000
									}
								}
							}
						}
					}
				}
				JOINT RightShoulder
				{
					OFFSET 0.000000 0.000000 0.000000
					CHANNELS 3 Zrotation Yrotation Xrotation
					JOINT RightArm
					{
						OFFSET -3.136600 1.374050 -0.404650
						CHANNELS 3 Zrotation Yrotation Xrotation
						JOINT RightForeArm
						{
							OFFSET -5.241900 -0.000000 -0.000000
							CHANNELS 3 Zrotation Yrotation Xrotation
							JOINT RightHand
							{
								OFFSET -3.444170 -0.000000 -0.000000
								CHANNELS 3 Zrotation Yrotation Xrotation
								JOINT RightFingerBase
								{
									OFFSET 0.000000 0.000000 0.000000
									CHANNELS 3 Zrotation Yrotation Xrotation
									JOINT RightHandIndex1
									{
										OFFSET -0.622530 -0.000000 -0.000000
										CHANNELS 3 Zrotation Yrotation Xrotation
										End Site
										{
											OFFSET 0.000000 0.000000 0.000000
										}
									}
								}
								JOINT RThumb
								{
									OFFSET 0.000000 0.000000 0.000000
									CHANNELS 3 Zrotation Yrotation Xrotation
									End Site
									{
										OFFSET 0.000000 0.000000 0.000000
									}
								}
							}
						}
					}
				}
			}
		}
	}
}
MOTION
Frames: 6
Frame Time: 0.008333
8.810130 17.903755 -5.911774 3.359110 6.184484 7.084535 -4.027589 1.991459 6.021566 -14.800451 -0.817986 5.911676 -0.628382 7.581904 22.105948 -0.223305 14.925054 36.222907 0.283096 3.392829 9.376869 0.991933 3.551954 -5.278333 9.617250 4.769304 -33.573857 2.371107 -11.633390 24.697573 -2.276845 -3.787017 27.573363 -0.200092 -2.875717 7.933198 0.198132 -2.134095 2.540712 1.440752 -2.408670 -4.077422 0.800975 -2.094456 -2.199349 -3.921548 -0.861983 -10.309502 4.786635 -1.036748 10.821354 0.828228 -0.385177 5.906426 3.340129 -10.556231 0.645518 -75.067696 -19.236006 28.879262 40.525538 -40.495675 -21.236065 -0.530524 0.313888 -27.973040 29.063310 -15.461260 -8.830771 -7.125000 0.000000 0.000000 1.099247 11.750041 -0.852294 -3.789642 9.065313 1.171815 93.422598 -21.506080 -45.570453 -2.468597 8.292264 -2.182771 -2.335896 -2.237206 47.814785 164.002570 71.957514 -15.071373 7.125000 0.000000 0.000000 -158.203172 -49.411505 -2.476981
8.812165 17.910662 -5.780766 3.393830 5.981575 6.923436 -4.002788 1.891579 5.879873 -14.876768 -0.533395 5.297011 -0.166161 8.205087 23.652520 -0.176725 15.745977 37.167990 0.209289 2.905887 8.019607 0.979343 3.526915 -5.159761 9.752837 4.715292 -33.447926 2.279785 -11.775865 25.290839 -2.467695 -3.080024 27.540773 -0.226475 -3.058150 8.440994 0.233505 -2.061290 2.907644 1.433523 -2.315981 -4.106272 0.789495 -2.021753 -2.564427 -3.952201 -0.749346 -10.010559 4.804649 -0.902629 10.654275 0.848285 -0.323132 5.762279 3.344321 -10.568105 0.621575 -75.491424 -18.575161 28.901302 40.570613 -40.586872 -21.274616 -0.536365 0.298869 -27.875127 29.129670 -15.268825 -8.749512 -7.125000 0.000000 0.000000 1.174742 11.968324 -0.905482 -3.780715 9.111956 1.180552 93.339253 -21.463813 -44.966268 -2.457711 8.339663 -2.208268 -2.324227 -2.250375 47.660394 164.079558 71.966235 -15.008718 7.125000 0.000000 0.000000 -158.177117 -49.412114 -2.480542
8.814317 17.916667 -5.650895 3.429872 5.788851 6.777793 -3.970265 1.791539 5.722332 -14.965612 -0.249137 4.693420 0.322189 8.820393 25.175518 -0.193786 16.762555 37.947408 0.166686 2.629348 7.248508 0.969309 3.502984 -5.048674 9.894145 4.648461 -33.318199 2.192400 -11.906719 25.851923 -2.647077 -2.404487 27.498505 -0.244144 -3.179838 8.779780 0.274984 -1.978422 3.177446 1.423858 -2.208738 -4.109545 0.768748 -1.944763 -2.791090 -4.027135 -0.626203 -9.688089 4.857060 -0.754554 10.450154 0.904522 -0.253882 5.561607 3.340296 -10.570953 0.614912 -75.872844 -18.069956 28.982258 40.538077 -40.629899 -21.242582 -0.544912 0.283972 -27.824598 29.157251 -15.045932 -8.639691 -7.125000 0.000000 0.000000 1.228776 12.225171 -0.940847 -3.775923 9.140133 1.198637 93.236703 -21.300382 -44.436054 -2.451830 8.378950 -2.231365 -2.312189 -2.262161 47.515785 164.191449 71.993930 -14.914962 7.125000 0.000000 0.000000 -158.140769 -49.394487 -2.475149
8.816673 17.921110 -5.522992 3.468204 5.613763 6.658916 -3.924369 1.691221 5.537350 -15.076147 0.034544 4.109003 0.855788 9.422059 26.657693 -0.321053 18.117950 38.439942 0.178120 2.717167 7.492471 0.963702 3.480973 -4.950550 10.045360 4.559433 -33.181899 2.111832 -12.017449 26.357276 -2.806599 -1.783423 27.439479 -0.246721 -3.196334 8.825892 0.327038 -1.878131 3.279046 1.409971 -2.076293 -4.068525 0.731954 -1.860352 -2.778060 -4.178750 -0.484866 -9.324875 4.969034 -0.582311 10.181885 1.023410 -0.172155 5.263049 3.322043 -10.558170 0.638174 -76.180999 -17.834275 29.165240 40.371143 -40.589512 -21.088317 -0.558146 0.269285 -27.856122 29.117676 -14.770295 -8.480407 -7.125000 0.000000 0.000000 1.245646 12.548800 -0.945346 -3.778291 9.136334 1.232908 93.100896 -20.927131 -44.033934 -2.454617 8.404188 -2.250304 -2.299512 -2.271550 47.388114 164.363783 72.054482 -14.767347 7.125000 0.000000 0.000000 -158.086597 -49.345282 -2.454249
8.818880 17.928126 -5.395388 3.453519 5.440041 6.537675 -3.875863 1.598841 5.351495 -15.143118 0.290147 3.531256 1.407053 10.015829 28.126041 -0.543879 19.659164 38.704708 0.213520 2.940306 8.115512 0.965117 3.454751 -4.848172 10.250308 4.477970 -33.041362 2.032502 -12.124502 26.853083 -2.943390 -1.205954 27.304766 -0.234917 -3.104880 8.572036 0.429136 -1.773150 3.385908 1.400175 -1.935451 -4.030950 0.677553 -1.772478 -2.785647 -4.262923 -0.339482 -8.945552 5.031698 -0.410393 9.940193 1.093508 -0.089873 4.980201 3.312727 -10.546181 0.659926 -76.473177 -17.578845 29.376024 40.203580 -40.549643 -20.932556 -0.571342 0.254149 -27.947157 29.058738 -14.513455 -8.324746 -7.125000 0.000000 0.000000 1.247090 12.854304 -0.938737 -3.774271 9.135320 1.263970 92.997033 -20.569773 -43.552511 -2.470470 8.461036 -2.273043 -2.279821 -2.284626 47.120968 164.509056 72.111409 -14.644764 7.125000 0.000000 0.000000 -158.042813 -49.296610 -2.432347
8.820592 17.943653 -5.268769 3.263471 5.270839 6.408610 -3.818727 1.532716 5.162753 -15.065988 0.452881 2.975569 2.016752 10.583484 29.548658 -1.082783 21.815007 38.216087 0.328191 3.611041 9.992426 0.989763 3.414602 -4.731726 10.632985 4.421529 -32.886806 1.957265 -12.219397 27.317312 -3.004992 -0.772684 26.919699 -0.175543 -2.656365 7.325978 0.696764 -1.652658 3.510171 1.403912 -1.766834 -4.004768 0.564910 -1.673150 -2.861428 -4.124020 -0.180713 -8.512944 4.931257 -0.239549 9.786410 1.002221 -0.005756 4.749312 3.332975 -10.536818 0.676681 -76.712508 -17.258094 29.678768 40.033939 -40.511485 -20.771844 -0.584411 0.237532 -28.235035 28.935754 -14.318791 -8.181067 -7.125000 0.000000 0.000000 1.197510 13.099861 -0.895390 -3.749117 9.143523 1.284417 92.998829 -20.264980 -42.808774 -2.529542 8.622443 -2.308350 -2.236932 -2.309894 46.392481 164.564822 72.156348 -14.604978 7.125000 0.000000 0.000000 -158.033394 -49.249702 -2.407136
